<svg width="717" height="717" viewBox="0 0 717 717" fill="none" xmlns="http://www.w3.org/2000/svg">
<path d="M362.879 696.938C550.235 696.938 702.116 544.965 702.116 357.498C702.116 170.03 550.235 18.0569 362.879 18.0569C175.523 18.0569 23.6416 170.03 23.6416 357.498C23.6416 544.965 175.523 696.938 362.879 696.938Z" fill="white"/>
<path d="M543.69 633.83C541.991 634.963 540.104 636.285 538.405 637.419C536.517 638.552 534.818 639.874 532.93 640.819C531.231 641.763 529.91 642.708 528.211 643.652C528.022 643.841 527.644 643.841 527.456 644.219C521.981 647.619 516.318 650.641 510.654 653.474C508.955 654.419 507.068 655.363 505.369 656.119C505.369 656.119 505.18 656.308 504.802 656.308L499.139 659.141C495.363 661.03 491.399 662.73 487.623 664.43C485.736 665.374 483.659 666.13 481.771 666.886C479.884 667.641 477.807 668.586 475.919 669.341C474.031 670.097 471.955 671.041 470.067 671.797H469.878C467.991 672.552 465.914 673.308 464.026 673.875C459.684 675.386 455.342 676.708 451.001 678.219C449.49 678.786 447.98 679.163 446.47 679.73C441.939 681.241 437.409 682.375 433.067 683.319C431.368 683.886 429.669 684.075 427.781 684.452C423.439 685.397 419.097 686.341 414.755 687.286C413.811 687.475 413.056 687.475 412.112 687.852C410.602 688.041 409.092 688.419 407.582 688.608C405.505 688.797 403.617 689.364 401.352 689.552C400.408 689.741 399.464 689.741 398.52 690.119C397.388 690.308 395.877 690.686 394.556 690.686C390.78 691.252 386.816 691.63 383.04 692.197C381.908 692.386 380.398 692.386 379.265 692.764H379.076C377.377 692.953 375.678 692.952 374.168 693.33C372.469 693.519 370.77 693.519 369.26 693.519C368.316 693.519 367.183 693.708 366.239 693.708C364.351 693.708 362.652 693.897 360.953 693.897C358.499 693.897 356.423 694.086 354.157 694.086H342.264C242.59 692.575 170.958 646.056 106.962 579C106.962 579 110.311 550.793 97.9622 566C90.7886 559.578 88.1693 542.784 116.675 521.251C152.543 494.05 238.437 477.05 238.437 477.05C238.437 477.05 271.662 471.572 395.122 497.45C467.424 512.562 522.359 534.473 552.941 593.974C559.737 605.118 566.155 624.007 543.69 633.83Z" fill="white"/>
<path d="M396.255 493.672C441.562 502.928 489.889 512.75 527.267 542.784C539.726 552.984 548.033 567.907 554.829 582.262C558.227 589.44 561.436 596.618 564.079 604.552C565.589 609.841 567.666 615.696 566.533 621.741C566.344 623.441 564.834 625.518 563.701 626.652C558.227 632.13 552.375 635.341 546.522 639.685C511.787 663.863 471.955 680.864 430.613 689.741C338.489 709.764 245.448 687.545 164.462 639C137.467 622.755 129.105 607.422 107.962 584C105.508 581.167 102.962 574.522 102.962 571.5C103.151 564.322 84.7715 561.673 87.2256 555.251C92.889 540.517 100.251 525.973 112.711 515.773C121.772 509.539 131.4 504.439 141.216 500.095C172.364 486.872 205.212 477.617 239.003 473.839C241.835 473.65 242.401 477.617 239.569 478.183C207.288 484.795 175.196 494.806 145.18 508.217C134.231 513.695 122.716 518.417 114.032 526.917C105.726 535.984 99.8738 546.94 95.1543 558.273C92.1339 565.073 113.088 572.522 114.032 578C128.946 595.756 129.584 604.9 148.462 618.5C251.912 690.845 402.296 705.419 512.165 645.163C522.17 639.685 531.798 633.641 541.048 627.218C545.579 624.196 550.298 621.552 553.885 617.963C554.073 617.774 553.885 617.963 553.885 618.152C553.885 618.341 553.696 618.718 553.696 618.718C553.885 615.885 552.941 612.107 551.808 608.329C547.466 594.54 540.67 580.185 533.308 567.718C521.792 549.018 502.16 537.306 482.338 527.862C468.557 521.439 454.21 516.528 439.674 511.806C425.138 507.084 410.225 503.117 395.311 499.528C391.347 498.395 392.48 492.917 396.255 493.672Z" fill="black"/>
<path d="M560.962 656.5C556.431 621.555 551.808 573.762 539.726 557.895C526.512 540.706 521.037 535.229 476.863 520.306C474.409 508.406 465.725 478.75 455.342 466.283C439.485 442.483 396.255 437.005 383.418 439.839C383.418 439.839 313.57 415.283 233.151 415.283C207.666 420.949 178.216 432.472 162.17 456.839C151.221 472.894 163.68 478.183 158.206 492.728C156.696 496.506 123.66 515.395 110.256 526.728C104.027 531.64 97.2306 544.295 92.5112 560.54C83.0723 593.785 178.855 598.266 166.962 638.5C244.462 652.5 198.121 638.111 183.962 648.5C218.734 669.047 222.319 672.689 224.962 672.5L520.962 667.452C520.585 667.074 481.264 665.548 560.962 656.5Z" fill="white"/>
<path d="M565.462 638.5C560.743 607.522 558.415 606.252 546.333 577.351C540.481 563.373 531.42 549.962 518.961 541.651C512.542 537.684 505.557 534.473 498.195 531.451C490.833 528.617 483.281 525.973 475.919 523.329C474.786 522.762 473.843 521.817 473.465 520.684C472.521 515.962 471.388 511.428 469.878 506.706C463.649 487.628 457.041 466.283 439.107 455.139C425.327 446.828 409.092 442.861 393.234 442.105C390.214 442.105 386.816 442.105 383.984 442.672H383.418C383.229 442.672 382.663 442.672 382.474 442.483C371.147 437.005 358.688 433.794 346.418 430.394C309.606 421.894 271.095 418.305 233.339 418.116C210.12 423.594 177.839 436.25 163.68 459.861C161.226 463.639 160.094 467.417 160.66 471.761C161.226 476.484 162.737 481.773 161.604 486.684C161.038 488.762 160.66 491.217 159.716 493.106C157.828 495.75 154.808 497.451 152.354 498.962C140.083 507.084 127.624 514.073 115.731 522.384C111.767 525.217 107.991 527.862 105.159 531.829C96.8531 543.729 120.039 560.333 117.962 574.5C114.187 603.4 187.866 597.289 184.091 626C179.749 654.9 202.942 626.444 187.462 651C177.268 666.489 194.253 636.111 178.962 646.5C177.452 647.444 209.597 608.269 180.962 641.5C180.585 639.989 235.763 674.5 237.462 674.5L473.465 677.276L492.962 678.5C485.789 670.378 530.559 668.256 525.462 659C509.227 632.366 569.426 669.478 565.462 638.5ZM565.649 641.5C568.292 661.522 519.809 640.111 527.36 659C534.911 677.7 481.748 656.7 494.962 672C494.962 672 479.884 676.189 477.052 676L229.462 667C228.171 663.978 174.462 643.389 174.462 641.5C174.462 639.989 167.329 640.378 168.462 640C172.238 637.922 152.875 628.022 156.462 625C187.422 597.044 164.462 644.5 143.962 623.5C149.437 584.966 73.6334 578.296 90.8122 541.651C94.7765 533.151 99.8735 524.084 107.802 518.795C122.527 507.84 138.573 499.906 152.92 489.328C153.109 489.328 153.109 489.139 153.109 489.139C152.92 489.328 152.543 489.895 152.543 490.084C154.053 486.684 154.43 483.85 154.053 480.073C153.298 475.35 152.165 468.928 153.864 464.017C154.619 461.183 155.941 458.539 157.451 456.461C174.441 430.961 204.456 419.627 232.962 413.205C241.079 413.394 249.197 412.072 257.314 412.072C268.452 412.072 279.779 413.772 290.917 415.094C322.82 420.005 353.402 428.505 384.928 435.494L382.852 435.305C390.214 433.794 397.01 434.55 404.184 435.494C449.49 442.294 464.781 462.128 477.052 504.439C478.562 509.162 479.695 513.884 480.827 518.795L478.373 515.962C501.027 524.084 526.512 531.262 540.859 552.418C546.145 558.84 549.92 566.396 553.129 573.951C565.211 604.363 560.74 609.389 565.649 641.5Z" fill="black"/>
<path d="M204.079 511.995C221.635 549.395 248.631 580.94 281.1 606.063C282.233 607.007 281.1 608.896 279.59 608.141C250.707 594.352 226.544 571.118 212.008 542.784C207.288 533.34 203.324 523.14 201.814 512.562C201.625 511.239 203.513 510.862 204.079 511.995ZM480.45 519.74C481.205 559.218 465.159 599.64 434.388 625.141C433.633 625.896 432.689 625.707 431.934 624.952C431.179 624.196 431.368 623.252 432.123 622.496C438.919 615.885 445.904 609.085 451.001 600.963C461.95 585.285 468.557 566.962 471.577 548.262C473.088 539.006 474.031 529.184 473.276 519.929C473.276 515.584 480.261 515.017 480.45 519.74ZM341.509 613.618C336.035 632.696 331.504 653.474 334.147 673.308C334.902 677.841 327.917 678.975 326.973 674.252C325.841 663.297 327.162 652.719 329.05 642.33C331.127 631.941 333.769 621.93 337.356 612.107C338.489 609.841 342.453 610.974 341.509 613.618ZM416.643 610.029C424.383 626.841 429.857 644.219 434.199 661.975C434.766 663.863 433.444 665.752 431.556 666.319C429.669 666.886 427.781 665.563 427.215 663.675C424.76 650.452 421.74 637.23 417.587 624.196C416.077 619.852 414.755 615.696 413.056 611.352C412.112 609.274 415.322 607.574 416.643 610.029Z" fill="black"/>
<path d="M163.114 491.784C171.798 539.573 205.4 579.807 245.799 605.685C259.58 614.374 274.115 621.93 289.218 628.163C290.162 628.73 290.728 629.674 290.162 630.618C289.973 631.563 288.651 632.13 288.085 631.563C272.416 625.896 257.314 618.718 243.156 610.218C214.273 593.218 189.165 569.607 172.175 540.706C163.492 525.784 156.507 510.295 153.298 493.295C152.731 490.461 154.808 487.817 157.639 487.439C160.094 486.495 162.925 488.572 163.114 491.784ZM327.351 678.408C320.744 677.652 316.024 671.608 317.346 664.997L319.988 652.53C320.932 647.619 325.652 644.03 330.56 644.785C335.468 645.352 339.621 649.508 339.621 654.797V667.641C339.81 674.063 334.147 679.164 327.351 678.408ZM436.087 669.719C429.668 672.175 422.872 668.208 421.173 661.597L418.153 649.13C417.02 644.219 419.663 639.119 424.571 637.23C429.291 635.53 434.765 637.796 436.842 642.141L442.505 653.663C445.337 660.274 442.505 667.641 436.087 669.719Z" fill="black"/>
<path d="M236.926 483.284C233.528 473.839 232.207 464.206 232.962 454.194C232.962 453.25 233.717 452.683 234.661 452.683C235.416 452.683 236.171 453.439 236.171 454.194C236.926 463.261 239.569 472.328 243.722 480.261C245.61 484.795 238.625 488.006 236.926 483.284ZM396.444 495.75C389.836 480.828 373.602 473.272 359.066 468.172C350.004 465.339 340.188 463.261 330.749 461.75C307.907 458.161 275.437 452.683 252.595 450.417C252.406 450.417 252.406 449.85 252.595 449.85C259.202 449.094 265.809 449.094 272.417 449.094C292.238 449.661 312.06 451.739 331.693 454.761C351.326 457.783 372.28 463.828 387.194 477.995C391.913 482.906 396.255 488.573 397.388 495.562C397.576 496.128 396.632 496.506 396.444 495.75Z" fill="black"/>
<path d="M418.342 556.384C413.434 580.751 381.341 595.296 327.162 573.384C270.906 550.718 246.743 496.695 240.513 480.639C273.738 418.305 250.707 375.049 250.707 375.049C327.351 368.438 394.367 458.161 394.367 458.161L404.75 502.55C405.694 506.328 407.582 509.728 410.413 511.995C415.51 520.684 421.551 540.895 418.342 556.384Z" fill="white"/>
<path d="M239.569 481.395C244.1 474.595 246.931 466.472 248.819 458.728C252.406 442.483 253.539 425.861 253.727 409.427V403.194C252.972 396.96 250.896 390.727 248.442 385.06C245.421 377.505 256.559 372.782 259.957 380.338C260.523 381.282 260.523 382.982 260.523 383.927C261.279 416.038 262.6 457.405 242.401 484.039C240.891 485.361 238.059 483.283 239.569 481.395ZM397.199 457.783C400.785 459.861 401.918 462.694 402.484 465.528C403.995 471.194 403.428 477.428 404.939 483.283C406.071 488.95 409.658 494.428 410.602 500.284C411.735 506.517 415.321 519.362 416.832 525.784C417.398 527.295 416.265 528.806 414.755 529.184C413.811 529.373 413.056 529.184 412.301 528.617C409.28 525.973 407.77 523.328 405.882 520.117C402.862 514.451 400.597 509.162 398.709 502.928C397.01 497.261 397.765 491.028 396.255 485.172C395.122 479.506 391.724 474.028 390.591 468.172C389.836 465.339 389.648 462.317 391.724 458.728C393.234 457.217 395.5 456.839 397.199 457.783Z" fill="black"/>
<path d="M414.189 520.117C369.071 517.662 332.259 503.495 296.391 439.65C326.596 466.284 362.275 476.484 399.842 481.206L404.75 502.928C405.694 506.517 411.357 517.662 414.189 520.117Z" fill="black"/>
<path d="M412.301 511.239C420.418 526.351 425.138 545.24 420.041 562.051C416.265 573.951 405.316 582.64 393.612 585.851C366.239 593.218 334.524 581.507 310.361 568.662C280.345 551.851 258.258 523.706 244.1 493.106C243.156 490.65 246.554 488.761 247.875 491.217C252.784 501.228 258.447 510.862 264.865 519.551C271.284 528.617 278.646 536.74 286.764 544.107C310.927 565.829 343.397 579.24 376.056 579.24C409.658 578.296 422.306 560.54 414.566 528.051C413.434 522.762 411.546 517.473 408.903 512.939C407.393 511.051 410.979 508.973 412.301 511.239Z" fill="black"/>
<path d="M503.67 227.714C508.012 247.548 504.614 260.77 502.726 315.548C500.838 369.382 485.169 445.505 466.103 464.583C451.378 478.939 404.561 490.273 362.653 479.695C341.321 474.217 323.387 461.939 308.851 453.25C290.351 442.105 274.304 407.916 261.09 386.005C250.707 368.816 251.651 389.594 238.248 374.671C219.559 354.271 197.094 313.47 208.232 241.314C226.166 124.202 318.856 110.413 387.571 123.446C456.853 136.291 492.343 175.58 503.67 227.714Z" fill="white"/>
<path d="M250.141 395.449C244.666 386.382 237.681 378.449 231.263 369.949C221.824 356.915 214.65 341.993 209.931 326.693C189.354 260.959 201.813 175.013 263.921 136.291C320.366 100.401 429.857 113.435 475.541 162.547C492.72 180.302 503.858 203.347 508.578 227.525C508.766 229.036 509.521 231.492 509.71 233.003C509.899 234.136 510.654 235.647 510.465 236.97C509.899 242.259 508.955 247.359 508.578 252.648C504.991 284.004 505.935 316.115 501.97 347.66C498.384 380.716 493.664 413.772 483.848 445.694C480.827 455.328 474.786 464.206 467.046 470.439C449.49 485.172 426.648 490.084 404.75 491.028C360.764 493.106 316.213 477.617 290.728 440.405C289.784 438.894 291.672 437.383 292.804 438.705C314.136 461.561 342.831 476.295 373.601 479.506C407.581 483.472 458.74 480.45 473.654 443.994C490.832 392.427 499.894 338.026 500.838 283.815C500.838 270.592 500.083 257.37 500.083 243.959C500.083 242.259 500.271 238.481 500.271 236.781C500.271 236.97 500.271 236.97 500.271 236.781C498.384 232.059 497.628 226.77 496.307 222.047C491.021 202.403 481.582 183.702 468.179 168.969C423.627 118.913 324.142 106.446 268.452 143.846C224.278 173.125 212.574 229.414 209.365 278.904C206.722 315.926 217.671 352.382 245.799 377.882L256.937 389.405C262.034 394.883 253.916 401.116 250.141 395.449Z" fill="black"/>
<path d="M278.08 320.27C278.08 320.27 270.718 284.759 236.36 289.103C206.533 292.881 196.15 364.282 263.733 384.116" fill="white"/>
<path d="M260.524 353.138C255.049 350.115 251.273 344.827 251.085 338.404C251.273 333.682 252.029 328.204 250.896 323.482C250.141 318.948 245.421 317.815 241.835 318.004C238.059 318.76 235.605 323.482 235.038 327.26C235.038 327.449 234.85 328.204 234.85 328.393C234.661 329.526 232.773 329.526 232.207 328.393C229.186 319.137 235.982 308.937 245.988 310.259C259.957 311.204 261.845 325.937 259.202 336.893C257.692 341.615 259.768 345.96 262.223 349.927L262.789 350.682C263.922 352.193 262.034 354.082 260.524 353.138ZM449.301 295.148C452.888 311.959 459.495 327.449 467.802 342.182C475.164 360.127 456.286 377.127 439.485 376.371C437.597 376.371 437.408 373.727 438.919 373.349C449.49 369.949 459.307 362.96 460.817 352.004C461.572 348.604 460.628 345.771 458.929 342.938C451.189 328.204 446.47 311.582 447.602 294.959C447.791 294.015 449.301 294.015 449.301 295.148Z" fill="black"/>
<path d="M276.759 320.459C271.284 306.482 259.58 293.259 243.722 293.448C242.212 293.259 239.947 293.637 238.437 293.637C234.472 293.826 231.074 295.337 228.054 298.17C212.952 313.282 215.594 339.915 227.865 356.727C232.207 362.582 237.493 367.871 243.722 372.027C249.952 376.371 256.748 379.582 264.11 382.416C265.809 382.982 265.054 385.438 263.355 385.249C247.498 381.849 232.396 374.105 222.013 361.071C205.967 341.615 202.569 309.315 221.824 290.426C226.166 286.648 232.018 283.815 237.87 283.815C239.758 283.815 242.59 283.248 244.477 283.815C254.483 284.381 263.922 289.292 269.963 297.037C275.437 303.648 278.458 311.77 279.401 319.704C279.401 321.404 277.325 321.971 276.759 320.459Z" fill="black"/>
<path d="M521.604 171.424C538.405 110.79 470.445 72.6345 452.133 100.024C438.919 119.857 387.949 104.557 310.55 103.046C233.151 101.346 212.385 142.524 211.441 186.725C211.441 186.725 177.461 204.669 179.538 267.948C181.615 333.682 249.197 386.571 257.503 419.816C257.503 419.816 258.447 424.161 249.386 378.449C197.849 353.704 208.799 292.504 236.36 288.915C257.314 286.27 268.452 298.548 273.738 308.559C275.815 311.393 296.014 335.949 296.391 255.67C296.58 200.891 350.004 182.947 410.602 205.047C442.317 216.569 475.542 225.07 498.384 208.636C502.159 219.592 506.124 231.492 503.103 246.225C512.353 237.725 520.093 225.258 522.17 209.769C523.68 200.514 521.226 192.58 515.94 185.402C518.206 181.625 520.093 176.713 521.604 171.424Z" fill="black"/>
<path d="M397.577 264.548C402.862 263.981 405.316 257.937 402.485 253.214C400.786 250.759 398.709 248.681 395.689 247.548C386.627 244.714 357.367 251.136 344.719 265.681C333.392 279.092 373.979 266.626 397.577 264.548ZM460.062 268.326C456.098 267.192 454.776 261.148 458.174 257.37C459.873 255.481 462.139 253.781 464.781 253.403C472.899 251.892 491.21 259.259 496.496 273.237C501.027 285.326 479.129 273.048 460.062 268.326ZM361.331 319.326C355.668 319.137 351.326 314.415 351.892 308.748L352.081 302.137C352.27 296.47 356.989 292.126 362.653 292.692C368.316 292.881 372.658 297.604 372.092 303.27L371.903 309.882C371.714 315.359 366.995 319.515 361.331 319.326ZM460.628 322.915C455.343 322.726 451.378 318.193 451.567 312.904L451.756 306.67C451.945 301.381 456.475 297.415 461.761 297.604C467.047 297.793 471.011 302.326 470.822 307.615L470.634 313.848C470.445 319.137 465.914 323.104 460.628 322.915Z" fill="black"/>
<path d="M382.474 306.481C374.734 301.192 366.239 297.792 356.8 299.681C353.78 300.248 350.571 301.192 348.683 303.27C347.928 304.215 346.229 304.026 346.229 302.515C346.418 297.792 350.571 294.77 354.346 292.881C361.709 289.103 371.903 289.859 378.51 294.77C380.964 296.281 388.893 304.97 384.739 306.859C383.796 307.237 383.229 307.048 382.474 306.481ZM450.057 307.804C450.057 297.792 462.327 294.392 469.878 297.792C474.22 299.681 477.241 303.459 478.373 307.993C478.94 309.504 476.674 310.637 475.73 309.504C471.766 304.781 464.781 302.326 459.495 305.159C457.796 306.104 457.608 306.859 457.041 307.804C457.23 312.526 450.245 312.148 450.057 307.804Z" fill="black"/>
<path d="M431.367 400.171C416.265 414.527 387.76 403.005 380.209 385.438C379.265 383.36 381.719 381.471 383.607 382.416C387.571 384.494 391.158 386.76 394.933 388.271C405.882 393.183 417.209 397.338 429.102 396.016C431.367 395.638 433.066 398.471 431.367 400.171Z" fill="black"/>
<path d="M398.898 348.415C398.898 348.415 376.622 362.393 351.703 362.204C326.596 362.016 323.575 342.371 323.387 331.793C323.387 331.793 326.785 347.093 341.887 352.76C356.612 358.238 398.898 348.415 398.898 348.415ZM470.067 345.771C470.067 345.771 475.542 352.382 482.904 357.104C487.812 360.504 494.419 356.915 494.419 350.871C494.419 351.06 480.827 351.627 470.067 345.771Z" fill="black"/>
<path d="M407.204 285.326C394.367 284.192 362.275 281.548 350.004 280.415L340.566 279.659C332.826 279.092 326.596 285.892 325.274 293.448C324.708 295.904 324.708 299.87 324.708 302.137V311.77C324.708 317.626 324.519 323.86 326.596 329.526C330.371 342.749 342.453 353.327 356.612 351.815C358.122 351.626 366.806 350.682 368.505 350.304L387.571 348.226C393.801 347.66 399.464 346.149 404.75 342.749C412.301 338.215 419.663 331.415 419.097 321.782L419.663 312.337C420.041 300.437 423.439 286.459 407.204 285.326ZM407.77 277.581C418.908 278.526 426.459 290.048 425.704 300.815C425.704 302.326 425.138 311.204 424.949 312.904C424.949 314.793 424.383 323.293 424.194 324.993C423.061 341.049 405.128 352.382 390.403 354.46C382.852 355.404 366.994 357.482 359.443 358.427C357.556 358.615 354.913 358.993 353.025 359.182C352.081 359.182 350.004 358.993 349.061 358.993C329.05 356.349 316.213 335.76 316.779 316.682V302.326C316.779 300.626 316.779 296.47 316.968 294.77C317.723 286.459 322.254 278.526 329.805 273.992C333.203 272.103 337.168 271.159 341.132 271.348L350.76 272.292C362.653 273.426 395.311 276.637 407.77 277.581ZM462.516 281.359C467.802 280.603 493.287 277.77 498.006 277.392C499.139 277.392 502.348 276.826 503.292 276.826C513.486 275.315 518.206 286.459 519.149 294.77C519.716 302.137 519.149 309.126 519.338 316.304C519.338 321.215 518.772 326.315 517.639 331.037C514.619 343.882 505.557 357.293 490.644 352.949C487.057 352.193 480.072 351.249 476.674 350.493L473.088 349.738C466.292 348.604 460.628 343.882 456.853 338.593C449.679 330.282 451.189 319.137 450.434 309.315C449.679 299.493 449.868 284.192 462.516 281.359ZM463.46 288.159C456.098 291.559 457.985 302.515 457.985 309.126L458.552 323.293C458.74 332.36 465.914 341.237 474.409 343.693C476.486 344.26 482.527 345.393 484.792 345.771L491.588 347.282C508.578 352.76 515.185 329.148 514.996 316.115C514.241 305.159 517.639 292.315 509.71 283.437C507.823 281.548 505.935 280.981 503.858 281.548C502.726 281.737 499.517 282.303 498.573 282.492C494.042 283.437 468.557 287.404 463.46 288.159Z" fill="black"/>
<path d="M320.744 303.27C318.856 307.615 317.157 307.048 313.948 307.048L307.152 306.859C298.468 306.293 288.651 305.726 279.968 304.404C275.248 303.648 270.34 302.893 265.621 301.759C263.733 301.193 262.6 299.304 262.978 297.415C263.544 295.715 264.865 294.581 266.564 294.77L280.345 295.526L294.126 296.093C298.657 296.281 310.172 296.659 314.703 296.848C317.157 296.848 319.233 297.037 321.499 296.281C322.443 296.093 323.387 296.47 323.575 297.415C323.764 297.981 323.575 298.17 323.575 298.548L320.744 303.27ZM421.362 298.359C429.857 293.637 452.322 287.026 456.475 299.87C458.363 303.27 453.455 306.293 451.189 302.893C451.189 303.459 450.057 302.893 449.49 302.893C440.429 302.137 431.368 303.648 422.306 304.404C418.719 304.593 417.964 299.681 421.362 298.359Z" fill="black"/>
<path d="M358.605 686.911C539.694 686.911 686.495 540.022 686.495 358.825C686.495 177.627 539.694 30.738 358.605 30.738C177.516 30.738 30.7151 177.627 30.7151 358.825C30.7151 540.022 177.516 686.911 358.605 686.911Z" stroke="#087FE7" stroke-width="60" stroke-miterlimit="10"/>
</svg>
